<?xml version="1.0" encoding="UTF-8"?>
<svg id="Ebene_1" xmlns="http://www.w3.org/2000/svg" version="1.1" viewBox="0 0 352.8 33.8">
  <!-- Generator: Adobe Illustrator 29.3.1, SVG Export Plug-In . SVG Version: 2.1.0 Build 151)  -->
  <defs>
    <style>
      .st0 {
        fill: #002540;
      }
    </style>
  </defs>
  <path class="st0" d="M158.6,13.5c0,0,.1.2.1.3v15.7c0,.1,0,.2,0,.3,0,0-.2.1-.3.1h-5.3c-.1,0-.2,0-.3-.1,0,0-.1-.2-.1-.3v-15.6c0-.1,0-.3.1-.3,0,0,.2-.1.3-.1h5.3c.1,0,.2,0,.3.1Z"/>
  <path class="st0" d="M185.3,8.9c8.1,0,9.1,6.4,9.1,9.2v11.4c0,.1,0,.3-.1.3,0,0-.2.1-.3.1h-5.4c-.1,0-.2,0-.3-.1,0,0-.1-.2-.1-.3v-10c0-1.4-.3-2.5-1-3.3-.6-.8-1.4-1.1-2.4-1.1-.8,0-1.6.3-2.3,1.1-.7.7-1.1,2-1.2,3.8v9.6c0,0,0,.2,0,.2,0,.1-.2.1-.3.2h-5.4c-.1,0-.2,0-.3,0-.1,0-.2-.2-.2-.3v-10c0-1.4-.3-2.5-1-3.3-.6-.8-1.4-1.1-2.4-1.1-.8,0-1.6.3-2.3,1.1-.7.7-1.1,2-1.2,3.8v9.6c0,.1,0,.2-.1.3,0,0-.2.1-.3.1h-5.3c-.1,0-.2,0-.3-.1,0,0-.1-.2-.1-.3v-10.9c0-4,1.2-9.8,10.2-9.8s4.8.8,6.1,1.9c1.5-1.2,3.7-1.9,7-1.9h0Z"/>
  <path class="st0" d="M221,8.9c8.1,0,9.1,6.4,9.1,9.2v11.4c0,.1,0,.3-.1.3,0,0-.2.1-.3.1h-5.4c-.1,0-.2,0-.3-.1,0,0-.1-.2-.1-.3v-10c0-1.4-.3-2.5-1-3.3-.6-.8-1.4-1.1-2.4-1.1-.8,0-1.6.3-2.3,1.1-.7.7-1.1,2-1.2,3.8v9.6c0,0,0,.2,0,.2,0,.1-.2.1-.3.2h-5.4c-.1,0-.2,0-.3,0-.1,0-.2-.2-.2-.3v-10c0-1.4-.3-2.5-1-3.3-.6-.8-1.4-1.1-2.4-1.1-.8,0-1.6.3-2.3,1.1-.7.7-1.1,2-1.2,3.8v9.6c0,.1,0,.2-.1.3,0,0-.2.1-.3.1h-5.3c-.1,0-.2,0-.3-.1,0,0-.1-.2-.1-.3v-10.9c0-4,1.2-9.8,10.2-9.8s4.8.8,6.1,1.9c1.5-1.2,3.7-1.9,7-1.9h0Z"/>
  <path class="st0" d="M250.9,11.9c1.9,1.9,2.9,4.5,3,7.7,0,3.3-1,5.8-3,7.8-1.9,1.9-4.5,2.9-7.8,3-3.2,0-5.8-1-7.7-3-1.9-1.9-2.9-4.5-2.9-7.8,0-3.2,1-5.8,2.9-7.7,1.9-1.9,4.5-2.9,7.7-3,3.3,0,5.8,1,7.8,3ZM247.7,19.6c0-1.4-.4-2.5-1.2-3.3-.8-.8-1.9-1.2-3.3-1.2-1.4,0-2.5.4-3.2,1.2-.8.8-1.2,1.9-1.2,3.3,0,1.4.4,2.5,1.2,3.3.8.8,1.9,1.3,3.2,1.3,1.4,0,2.5-.5,3.3-1.3.8-.8,1.2-1.9,1.2-3.3Z"/>
  <path class="st0" d="M268,9c3.1,0,5.6,1,7.5,2.9,1.8,1.9,2.8,4.5,2.8,7.7,0,3.2-1,5.8-2.8,7.7-1.8,1.9-4.3,2.9-7.5,3-1.2,0-1.5,0-1.5,0-5.1,0-10.1-4.9-10.1-10.6V6.2c0-.1,0-.2.1-.3s.2-.1.3-.1h5.3c.1,0,.2,0,.3.1,0,0,.1.2.1.3v4.4c.6-.7,2.7-1.6,5.4-1.6h0ZM272.1,19.7c0-1.4-.4-2.4-1.3-3.3-.8-.8-1.9-1.2-3.2-1.3-1.4,0-2.5.4-3.3,1.2-.8.8-1.2,1.9-1.2,3.3,0,1.4.4,2.5,1.3,3.3s1.9,1.2,3.3,1.2c1.4,0,2.5-.4,3.2-1.2.8-.8,1.2-1.9,1.2-3.3Z"/>
  <path class="st0" d="M297.6,29.6c0,.1,0,.2-.1.3,0,0-.2.1-.3.1h-5.4c-.1,0-.2,0-.3-.1,0,0-.1-.2-.1-.3V4.9c0-.1,0-.2.1-.3,0,0,.2-.1.3-.1h5.4c.1,0,.2,0,.3.1,0,0,.1.2.1.3v24.7Z"/>
  <path class="st0" d="M321,8.9c3.2,0,5.7.9,7.6,2.9,1.9,2,2.9,5.2,3,9.6,0,.3-.2.5-.5.5h-14.1c.3.8.9,1.4,1.6,1.9s1.7.7,2.9.7c.9,0,1.7-.1,2.3-.4.7-.2,1.2-.5,1.5-.8,0,0,.2-.1.2-.1s.1,0,.2,0c.1,0,.2,0,.3.1l3.2,3.5c0,0,.1.2.1.3,0,.1,0,.2-.1.3-1,1-2.1,1.7-3.5,2.2-1.4.4-3,.7-4.7.7-3.2,0-5.8-1-7.8-2.9-1.9-1.9-2.9-4.5-3-7.7,0-3.2,1-5.8,2.9-7.7,1.9-1.9,4.5-2.9,7.7-2.9h0ZM325.1,17.5c-.2-.9-.7-1.6-1.4-2.1-.7-.5-1.6-.8-2.7-.8-1.2,0-2.1.3-2.7.8-.7.5-1.1,1.2-1.4,2.1h8.2Z"/>
  <path class="st0" d="M343.7,8.9c8.1,0,9.1,6.4,9.1,9.2v11.4c0,.1,0,.3-.1.3,0,0-.2.1-.3.1h-5.4c-.1,0-.2,0-.3-.1,0,0-.1-.2-.1-.3v-10c0-1.4-.3-2.5-1-3.3-.6-.8-1.4-1.1-2.4-1.1-.8,0-1.6.3-2.3,1.1-.7.7-1.1,2-1.2,3.8v9.6c0,.1,0,.2-.1.3,0,0-.2.1-.3.1h-5.3c-.1,0-.2,0-.3-.1,0,0-.1-.2-.1-.3v-10.9c0-4,1.2-9.8,10.2-9.8h0Z"/>
  <path class="st0" d="M51.6,1.4v31c0,.8-.6,1.4-1.4,1.4H1.4c-.8,0-1.4-.6-1.4-1.4V1.4C0,.6.6,0,1.4,0h48.9c.8,0,1.4.6,1.4,1.4ZM26.1,19c0-3.3-1-5.9-2.9-7.9-1.9-2-4.4-3-7.6-3-2.8,0-4.9.9-5.5,1.6v-4.5c0-.1,0-.2-.1-.3,0,0-.2-.1-.3-.1h-5.4c-.1,0-.2,0-.3.1,0,0-.1.2-.1.3v14c0,5.8,5.1,10.8,10.4,10.8,0,0,.3,0,1.5,0,3.2,0,5.8-1.1,7.6-3,1.9-2,2.9-4.6,2.9-7.9ZM15.2,14.4c1.4,0,2.5.5,3.3,1.3.8.8,1.3,2,1.3,3.3,0,1.4-.4,2.5-1.3,3.4-.8.8-1.9,1.3-3.3,1.3-1.4,0-2.5-.4-3.4-1.3-.8-.8-1.3-1.9-1.3-3.4,0-1.4.4-2.5,1.3-3.4.8-.8,2-1.2,3.4-1.3h0ZM47.8,21.5c.3,0,.5-.2.5-.5,0-4.6-1.1-7.9-3-9.9-2-2-4.6-3-7.8-3-3.3,0-5.9,1.1-7.9,3-2,2-3,4.6-3,7.9,0,3.3,1.1,6,3,7.9,2,2,4.6,3,8,3,1.8,0,3.4-.2,4.9-.7,1.4-.4,2.6-1.2,3.6-2.2,0-.1.1-.2.1-.3,0-.1,0-.2-.2-.3l-3.3-3.5c0,0-.2-.1-.3-.1,0,0-.1,0-.2,0,0,0-.1,0-.2.1-.4.3-.9.6-1.6.8-.7.2-1.5.4-2.4.4-1.2,0-2.2-.3-3-.7-.7-.5-1.3-1.1-1.6-1.9h14.4ZM41.6,17h-8.4c.3-.9.7-1.6,1.4-2.2.7-.6,1.6-.8,2.8-.9,1.2,0,2.1.3,2.8.9.7.6,1.1,1.3,1.4,2.2Z"/>
  <path class="st0" d="M67.8,7.4c.1,0,.2,0,.3.1,0,0,.1.2.1.3v5c0,.1,0,.2-.1.3,0,0-.2.1-.3.1h-3.3c-2.8,0-3,4.2-3,4.2v11.7c0,.1,0,.2-.1.3,0,0-.2.1-.3.1h-5.5c-.1,0-.2,0-.3-.1,0,0-.1-.2-.1-.3v-5.8s0-7.9,0-7.9h0c0-2.1,1.2-3.8,2.5-5.2,1.7-1.7,4.1-2.6,6.9-2.9h3.3Z"/>
  <path class="st0" d="M79.7,8c3.2,0,5.9,1,7.8,3,2,2,3,5.3,3,9.9,0,.3-.2.5-.5.5h-14.4c.3.8.9,1.4,1.6,1.9.7.5,1.7.7,3,.7.9,0,1.7-.1,2.4-.4.7-.2,1.2-.5,1.6-.8,0,0,.2-.1.2-.1,0,0,.1,0,.2,0,.1,0,.2,0,.3.1l3.3,3.5c0,0,.1.2.2.3,0,.1,0,.2-.1.3-1,1-2.2,1.8-3.6,2.2-1.4.4-3,.7-4.8.7-3.3,0-6-1-7.9-3-2-2-3-4.6-3-7.9,0-3.3,1-5.9,3-7.9,2-2,4.6-3,7.9-3h0ZM83.8,16.9c-.3-.9-.7-1.6-1.4-2.2-.7-.6-1.6-.8-2.8-.8-1.2,0-2.1.3-2.8.8-.7.6-1.2,1.3-1.4,2.2h8.4Z"/>
  <path class="st0" d="M102.6,8.1c7.4,0,11.5,4,11.5,10.1v10.8c0,.1,0,.2,0,.3,0,0-.2.1-.3.1h-4.6c-.1,0-.2,0-.3-.1,0,0-.1-.2-.2-.3l-.7-1.7c-.7.8-1.5,1.5-2.4,1.9-.9.4-2,.7-3.2.7-3.2,0-5.7-1-7.6-3-1.9-2-2.9-4.6-2.9-7.9,0-3.3,1-5.9,2.9-7.9,1.9-2,4.8-3,8-3h0ZM107.3,19.1c0-1.4-.5-2.5-1.3-3.3-.8-.8-2-1.3-3.4-1.3-1.4,0-2.5.4-3.3,1.3-.8.8-1.2,1.9-1.3,3.3,0,1.4.5,2.5,1.3,3.3.8.8,1.9,1.3,3.3,1.3,1.4,0,2.6-.4,3.4-1.3.8-.8,1.3-1.9,1.3-3.4Z"/>
  <path class="st0" d="M123.2,29.3c0,.1,0,.2-.1.3,0,0-.2.1-.3.1h-5.5c-.1,0-.2,0-.3-.1,0,0-.1-.2-.1-.3V5c0-.1,0-.2.1-.3s.2-.1.3-.1h5.5c.1,0,.2,0,.3.1,0,0,.1.2.1.3v24.3Z"/>
  <rect class="st0" x="136.4" width="3" height="33.8"/>
  <path class="st0" d="M158.6,4.6c0,0,.1.2.1.3v5.3c0,.1,0,.2-.1.3,0,0-.2.1-.3.1h-5.3c-.1,0-.2,0-.3-.1,0,0-.1-.2-.1-.3v-5.2c0-.2,0-.3.1-.3s.2-.1.3-.1h5.3c.1,0,.2,0,.3.1Z"/>
  <path class="st0" d="M287.6,13.5c0,0,.1.2.1.3v15.7c0,.1,0,.2,0,.3,0,0-.2.1-.3.1h-5.3c-.1,0-.2,0-.3-.1,0,0-.1-.2-.1-.3v-15.6c0-.1,0-.3.1-.3,0,0,.2-.1.3-.1h5.3c.1,0,.2,0,.3.1Z"/>
  <path class="st0" d="M307.9,13.5c0,0,.1.2.1.3v15.7c0,.1,0,.2,0,.3,0,0-.2.1-.3.1h-5.3c-.1,0-.2,0-.3-.1,0,0-.1-.2-.1-.3v-15.6c0-.1,0-.3.1-.3,0,0,.2-.1.3-.1h5.3c.1,0,.2,0,.3.1Z"/>
  <path class="st0" d="M287.6,4.6c0,0,.1.2.1.3v5.3c0,.1,0,.2-.1.3,0,0-.2.1-.3.1h-5.3c-.1,0-.2,0-.3-.1,0,0-.1-.2-.1-.3v-5.2c0-.2,0-.3.1-.3s.2-.1.3-.1h5.3c.1,0,.2,0,.3.1Z"/>
  <path class="st0" d="M307.9,4.6c0,0,.1.2.1.3v5.3c0,.1,0,.2-.1.3,0,0-.2.1-.3.1h-5.3c-.1,0-.2,0-.3-.1,0,0-.1-.2-.1-.3v-5.2c0-.2,0-.3.1-.3s.2-.1.3-.1h5.3c.1,0,.2,0,.3.1Z"/>
</svg>